<svg xmlns="http://www.w3.org/2000/svg" xmlns:svg="http://www.w3.org/2000/svg" id="svg3593" width="655.532" height="158.863" version="1.1"><defs id="defs3595"><marker id="Arrow2Lstart-9" orient="auto" refX="0" refY="0" style="overflow:visible"><path id="path4780-3" style="font-size:12px;fill-rule:evenodd;stroke-width:.625;stroke-linejoin:round" d="M 8.7185878,4.0337352 -2.2072895,0.01601326 8.7185884,-4.0017078 c -1.7454984,2.3720609 -1.7354408,5.6174519 -6e-7,8.035443 z" transform="matrix(1.1,0,0,1.1,1.1,0)"/></marker><marker id="Arrow2Lend-2" orient="auto" refX="0" refY="0" style="overflow:visible"><path id="path4783-4" style="font-size:12px;fill-rule:evenodd;stroke-width:.625;stroke-linejoin:round" d="M 8.7185878,4.0337352 -2.2072895,0.01601326 8.7185884,-4.0017078 c -1.7454984,2.3720609 -1.7354408,5.6174519 -6e-7,8.035443 z" transform="matrix(-1.1,0,0,-1.1,-1.1,0)"/></marker><marker id="marker3615" orient="auto" refX="0" refY="0" style="overflow:visible"><path id="path3617" style="font-size:12px;fill-rule:evenodd;stroke-width:.625;stroke-linejoin:round" d="M 8.7185878,4.0337352 -2.2072895,0.01601326 8.7185884,-4.0017078 c -1.7454984,2.3720609 -1.7354408,5.6174519 -6e-7,8.035443 z" transform="matrix(1.1,0,0,1.1,1.1,0)"/></marker><marker id="marker3619" orient="auto" refX="0" refY="0" style="overflow:visible"><path id="path3621" style="font-size:12px;fill-rule:evenodd;stroke-width:.625;stroke-linejoin:round" d="M 8.7185878,4.0337352 -2.2072895,0.01601326 8.7185884,-4.0017078 c -1.7454984,2.3720609 -1.7354408,5.6174519 -6e-7,8.035443 z" transform="matrix(-1.1,0,0,-1.1,-1.1,0)"/></marker><marker id="marker3623" orient="auto" refX="0" refY="0" style="overflow:visible"><path id="path3625" style="font-size:12px;fill-rule:evenodd;stroke-width:.625;stroke-linejoin:round" d="M 8.7185878,4.0337352 -2.2072895,0.01601326 8.7185884,-4.0017078 c -1.7454984,2.3720609 -1.7354408,5.6174519 -6e-7,8.035443 z" transform="matrix(1.1,0,0,1.1,1.1,0)"/></marker><marker id="marker3627" orient="auto" refX="0" refY="0" style="overflow:visible"><path id="path3629" style="font-size:12px;fill-rule:evenodd;stroke-width:.625;stroke-linejoin:round" d="M 8.7185878,4.0337352 -2.2072895,0.01601326 8.7185884,-4.0017078 c -1.7454984,2.3720609 -1.7354408,5.6174519 -6e-7,8.035443 z" transform="matrix(-1.1,0,0,-1.1,-1.1,0)"/></marker><marker id="marker3631" orient="auto" refX="0" refY="0" style="overflow:visible"><path id="path3633" style="font-size:12px;fill-rule:evenodd;stroke-width:.625;stroke-linejoin:round" d="M 8.7185878,4.0337352 -2.2072895,0.01601326 8.7185884,-4.0017078 c -1.7454984,2.3720609 -1.7354408,5.6174519 -6e-7,8.035443 z" transform="matrix(1.1,0,0,1.1,1.1,0)"/></marker><marker id="marker3635" orient="auto" refX="0" refY="0" style="overflow:visible"><path id="path3637" style="font-size:12px;fill-rule:evenodd;stroke-width:.625;stroke-linejoin:round" d="M 8.7185878,4.0337352 -2.2072895,0.01601326 8.7185884,-4.0017078 c -1.7454984,2.3720609 -1.7354408,5.6174519 -6e-7,8.035443 z" transform="matrix(-1.1,0,0,-1.1,-1.1,0)"/></marker><marker id="marker3639" orient="auto" refX="0" refY="0" style="overflow:visible"><path id="path3641" style="font-size:12px;fill-rule:evenodd;stroke-width:.625;stroke-linejoin:round" d="M 8.7185878,4.0337352 -2.2072895,0.01601326 8.7185884,-4.0017078 c -1.7454984,2.3720609 -1.7354408,5.6174519 -6e-7,8.035443 z" transform="matrix(1.1,0,0,1.1,1.1,0)"/></marker><marker id="marker3643" orient="auto" refX="0" refY="0" style="overflow:visible"><path id="path3645" style="font-size:12px;fill-rule:evenodd;stroke-width:.625;stroke-linejoin:round" d="M 8.7185878,4.0337352 -2.2072895,0.01601326 8.7185884,-4.0017078 c -1.7454984,2.3720609 -1.7354408,5.6174519 -6e-7,8.035443 z" transform="matrix(-1.1,0,0,-1.1,-1.1,0)"/></marker><marker id="Arrow2Lstart-9-6" orient="auto" refX="0" refY="0" style="overflow:visible"><path id="path4780-3-1" style="font-size:12px;fill-rule:evenodd;stroke-width:.625;stroke-linejoin:round" d="M 8.7185878,4.0337352 -2.2072895,0.01601326 8.7185884,-4.0017078 c -1.7454984,2.3720609 -1.7354408,5.6174519 -6e-7,8.035443 z" transform="matrix(1.1,0,0,1.1,1.1,0)"/></marker><marker id="Arrow2Lend-2-5" orient="auto" refX="0" refY="0" style="overflow:visible"><path id="path4783-4-5" style="font-size:12px;fill-rule:evenodd;stroke-width:.625;stroke-linejoin:round" d="M 8.7185878,4.0337352 -2.2072895,0.01601326 8.7185884,-4.0017078 c -1.7454984,2.3720609 -1.7354408,5.6174519 -6e-7,8.035443 z" transform="matrix(-1.1,0,0,-1.1,-1.1,0)"/></marker><marker id="Arrow2Lstart-9-7" orient="auto" refX="0" refY="0" style="overflow:visible"><path id="path4780-3-6" style="font-size:12px;fill-rule:evenodd;stroke-width:.625;stroke-linejoin:round" d="M 8.7185878,4.0337352 -2.2072895,0.01601326 8.7185884,-4.0017078 c -1.7454984,2.3720609 -1.7354408,5.6174519 -6e-7,8.035443 z" transform="matrix(1.1,0,0,1.1,1.1,0)"/></marker><marker id="Arrow2Lend-2-56" orient="auto" refX="0" refY="0" style="overflow:visible"><path id="path4783-4-9" style="font-size:12px;fill-rule:evenodd;stroke-width:.625;stroke-linejoin:round" d="M 8.7185878,4.0337352 -2.2072895,0.01601326 8.7185884,-4.0017078 c -1.7454984,2.3720609 -1.7354408,5.6174519 -6e-7,8.035443 z" transform="matrix(-1.1,0,0,-1.1,-1.1,0)"/></marker><marker id="Arrow2Lstart-9-74" orient="auto" refX="0" refY="0" style="overflow:visible"><path id="path4780-3-5" style="font-size:12px;fill-rule:evenodd;stroke-width:.625;stroke-linejoin:round" d="M 8.7185878,4.0337352 -2.2072895,0.01601326 8.7185884,-4.0017078 c -1.7454984,2.3720609 -1.7354408,5.6174519 -6e-7,8.035443 z" transform="matrix(1.1,0,0,1.1,1.1,0)"/></marker><marker id="Arrow2Lend-2-2" orient="auto" refX="0" refY="0" style="overflow:visible"><path id="path4783-4-54" style="font-size:12px;fill-rule:evenodd;stroke-width:.625;stroke-linejoin:round" d="M 8.7185878,4.0337352 -2.2072895,0.01601326 8.7185884,-4.0017078 c -1.7454984,2.3720609 -1.7354408,5.6174519 -6e-7,8.035443 z" transform="matrix(-1.1,0,0,-1.1,-1.1,0)"/></marker><marker id="Arrow2Lstart-9-4" orient="auto" refX="0" refY="0" style="overflow:visible"><path id="path4780-3-4" style="font-size:12px;fill-rule:evenodd;stroke-width:.625;stroke-linejoin:round" d="M 8.7185878,4.0337352 -2.2072895,0.01601326 8.7185884,-4.0017078 c -1.7454984,2.3720609 -1.7354408,5.6174519 -6e-7,8.035443 z" transform="matrix(1.1,0,0,1.1,1.1,0)"/></marker><marker id="Arrow2Lend-2-3" orient="auto" refX="0" refY="0" style="overflow:visible"><path id="path4783-4-0" style="font-size:12px;fill-rule:evenodd;stroke-width:.625;stroke-linejoin:round" d="M 8.7185878,4.0337352 -2.2072895,0.01601326 8.7185884,-4.0017078 c -1.7454984,2.3720609 -1.7354408,5.6174519 -6e-7,8.035443 z" transform="matrix(-1.1,0,0,-1.1,-1.1,0)"/></marker><marker id="Arrow2Lstart-9-8" orient="auto" refX="0" refY="0" style="overflow:visible"><path id="path4780-3-68" style="font-size:12px;fill-rule:evenodd;stroke-width:.625;stroke-linejoin:round" d="M 8.7185878,4.0337352 -2.2072895,0.01601326 8.7185884,-4.0017078 c -1.7454984,2.3720609 -1.7354408,5.6174519 -6e-7,8.035443 z" transform="matrix(1.1,0,0,1.1,1.1,0)"/></marker><marker id="Arrow2Lend-2-8" orient="auto" refX="0" refY="0" style="overflow:visible"><path id="path4783-4-4" style="font-size:12px;fill-rule:evenodd;stroke-width:.625;stroke-linejoin:round" d="M 8.7185878,4.0337352 -2.2072895,0.01601326 8.7185884,-4.0017078 c -1.7454984,2.3720609 -1.7354408,5.6174519 -6e-7,8.035443 z" transform="matrix(-1.1,0,0,-1.1,-1.1,0)"/></marker><marker id="marker4078" orient="auto" refX="0" refY="0" style="overflow:visible"><path id="path4080" style="font-size:12px;fill-rule:evenodd;stroke-width:.625;stroke-linejoin:round" d="M 8.7185878,4.0337352 -2.2072895,0.01601326 8.7185884,-4.0017078 c -1.7454984,2.3720609 -1.7354408,5.6174519 -6e-7,8.035443 z" transform="matrix(1.1,0,0,1.1,1.1,0)"/></marker><marker id="marker4082" orient="auto" refX="0" refY="0" style="overflow:visible"><path id="path4084" style="font-size:12px;fill-rule:evenodd;stroke-width:.625;stroke-linejoin:round" d="M 8.7185878,4.0337352 -2.2072895,0.01601326 8.7185884,-4.0017078 c -1.7454984,2.3720609 -1.7354408,5.6174519 -6e-7,8.035443 z" transform="matrix(-1.1,0,0,-1.1,-1.1,0)"/></marker><marker id="marker4086" orient="auto" refX="0" refY="0" style="overflow:visible"><path id="path4088" style="font-size:12px;fill-rule:evenodd;stroke-width:.625;stroke-linejoin:round" d="M 8.7185878,4.0337352 -2.2072895,0.01601326 8.7185884,-4.0017078 c -1.7454984,2.3720609 -1.7354408,5.6174519 -6e-7,8.035443 z" transform="matrix(1.1,0,0,1.1,1.1,0)"/></marker><marker id="marker4090" orient="auto" refX="0" refY="0" style="overflow:visible"><path id="path4092" style="font-size:12px;fill-rule:evenodd;stroke-width:.625;stroke-linejoin:round" d="M 8.7185878,4.0337352 -2.2072895,0.01601326 8.7185884,-4.0017078 c -1.7454984,2.3720609 -1.7354408,5.6174519 -6e-7,8.035443 z" transform="matrix(-1.1,0,0,-1.1,-1.1,0)"/></marker><marker id="Arrow2Lstart-9-0" orient="auto" refX="0" refY="0" style="overflow:visible"><path id="path4780-3-61" style="font-size:12px;fill-rule:evenodd;stroke-width:.625;stroke-linejoin:round" d="M 8.7185878,4.0337352 -2.2072895,0.01601326 8.7185884,-4.0017078 c -1.7454984,2.3720609 -1.7354408,5.6174519 -6e-7,8.035443 z" transform="matrix(1.1,0,0,1.1,1.1,0)"/></marker><marker id="Arrow2Lend-2-59" orient="auto" refX="0" refY="0" style="overflow:visible"><path id="path4783-4-49" style="font-size:12px;fill-rule:evenodd;stroke-width:.625;stroke-linejoin:round" d="M 8.7185878,4.0337352 -2.2072895,0.01601326 8.7185884,-4.0017078 c -1.7454984,2.3720609 -1.7354408,5.6174519 -6e-7,8.035443 z" transform="matrix(-1.1,0,0,-1.1,-1.1,0)"/></marker><marker id="marker4212" orient="auto" refX="0" refY="0" style="overflow:visible"><path id="path4214" style="font-size:12px;fill-rule:evenodd;stroke-width:.625;stroke-linejoin:round" d="M 8.7185878,4.0337352 -2.2072895,0.01601326 8.7185884,-4.0017078 c -1.7454984,2.3720609 -1.7354408,5.6174519 -6e-7,8.035443 z" transform="matrix(1.1,0,0,1.1,1.1,0)"/></marker><marker id="marker4216" orient="auto" refX="0" refY="0" style="overflow:visible"><path id="path4218" style="font-size:12px;fill-rule:evenodd;stroke-width:.625;stroke-linejoin:round" d="M 8.7185878,4.0337352 -2.2072895,0.01601326 8.7185884,-4.0017078 c -1.7454984,2.3720609 -1.7354408,5.6174519 -6e-7,8.035443 z" transform="matrix(-1.1,0,0,-1.1,-1.1,0)"/></marker><marker id="marker4220" orient="auto" refX="0" refY="0" style="overflow:visible"><path id="path4222" style="font-size:12px;fill-rule:evenodd;stroke-width:.625;stroke-linejoin:round" d="M 8.7185878,4.0337352 -2.2072895,0.01601326 8.7185884,-4.0017078 c -1.7454984,2.3720609 -1.7354408,5.6174519 -6e-7,8.035443 z" transform="matrix(1.1,0,0,1.1,1.1,0)"/></marker><marker id="marker4224" orient="auto" refX="0" refY="0" style="overflow:visible"><path id="path4226" style="font-size:12px;fill-rule:evenodd;stroke-width:.625;stroke-linejoin:round" d="M 8.7185878,4.0337352 -2.2072895,0.01601326 8.7185884,-4.0017078 c -1.7454984,2.3720609 -1.7354408,5.6174519 -6e-7,8.035443 z" transform="matrix(-1.1,0,0,-1.1,-1.1,0)"/></marker><marker id="Arrow2Lstart-9-81" orient="auto" refX="0" refY="0" style="overflow:visible"><path id="path4780-3-2" style="font-size:12px;fill-rule:evenodd;stroke-width:.625;stroke-linejoin:round" d="M 8.7185878,4.0337352 -2.2072895,0.01601326 8.7185884,-4.0017078 c -1.7454984,2.3720609 -1.7354408,5.6174519 -6e-7,8.035443 z" transform="matrix(1.1,0,0,1.1,1.1,0)"/></marker><marker id="Arrow2Lend-2-9" orient="auto" refX="0" refY="0" style="overflow:visible"><path id="path4783-4-3" style="font-size:12px;fill-rule:evenodd;stroke-width:.625;stroke-linejoin:round" d="M 8.7185878,4.0337352 -2.2072895,0.01601326 8.7185884,-4.0017078 c -1.7454984,2.3720609 -1.7354408,5.6174519 -6e-7,8.035443 z" transform="matrix(-1.1,0,0,-1.1,-1.1,0)"/></marker><marker id="marker4324" orient="auto" refX="0" refY="0" style="overflow:visible"><path id="path4326" style="font-size:12px;fill-rule:evenodd;stroke-width:.625;stroke-linejoin:round" d="M 8.7185878,4.0337352 -2.2072895,0.01601326 8.7185884,-4.0017078 c -1.7454984,2.3720609 -1.7354408,5.6174519 -6e-7,8.035443 z" transform="matrix(1.1,0,0,1.1,1.1,0)"/></marker><marker id="marker4328" orient="auto" refX="0" refY="0" style="overflow:visible"><path id="path4330" style="font-size:12px;fill-rule:evenodd;stroke-width:.625;stroke-linejoin:round" d="M 8.7185878,4.0337352 -2.2072895,0.01601326 8.7185884,-4.0017078 c -1.7454984,2.3720609 -1.7354408,5.6174519 -6e-7,8.035443 z" transform="matrix(-1.1,0,0,-1.1,-1.1,0)"/></marker><marker id="marker4332" orient="auto" refX="0" refY="0" style="overflow:visible"><path id="path4334" style="font-size:12px;fill-rule:evenodd;stroke-width:.625;stroke-linejoin:round" d="M 8.7185878,4.0337352 -2.2072895,0.01601326 8.7185884,-4.0017078 c -1.7454984,2.3720609 -1.7354408,5.6174519 -6e-7,8.035443 z" transform="matrix(1.1,0,0,1.1,1.1,0)"/></marker><marker id="marker4336" orient="auto" refX="0" refY="0" style="overflow:visible"><path id="path4338" style="font-size:12px;fill-rule:evenodd;stroke-width:.625;stroke-linejoin:round" d="M 8.7185878,4.0337352 -2.2072895,0.01601326 8.7185884,-4.0017078 c -1.7454984,2.3720609 -1.7354408,5.6174519 -6e-7,8.035443 z" transform="matrix(-1.1,0,0,-1.1,-1.1,0)"/></marker></defs><metadata id="metadata3598"/><g id="layer1" transform="translate(42.406933,-519.46875)"><rect style="fill:#ccc;fill-opacity:1;stroke:none" id="rect4419" width="90" height="20" x="392.859" y="549.738"/><rect style="fill:none;stroke:#000;stroke-width:.53149605;stroke-miterlimit:4;stroke-opacity:1;stroke-dasharray:none" id="rect3878" width="90" height="40" x="392.859" y="529.738" ry="0"/><text xml:space="preserve" style="font-size:16px;font-style:normal;font-variant:normal;font-weight:400;font-stretch:normal;text-align:start;line-height:125%;letter-spacing:0;word-spacing:0;writing-mode:lr-tb;text-anchor:start;fill:#000;fill-opacity:1;stroke:none;font-family:Sans;-inkscape-font-specification:Sans" id="text3880" x="397.859" y="544.738"><tspan id="tspan3882" x="397.859" y="544.738" style="font-size:16px;font-style:normal;font-variant:normal;font-weight:400;font-stretch:normal;text-align:start;line-height:125%;writing-mode:lr-tb;text-anchor:start;font-family:Sans;-inkscape-font-specification:Sans">process 1</tspan></text><text xml:space="preserve" style="font-size:16px;font-style:normal;font-variant:normal;font-weight:400;font-stretch:normal;text-align:start;line-height:125%;letter-spacing:0;word-spacing:0;writing-mode:lr-tb;text-anchor:start;fill:#000;fill-opacity:1;stroke:none;font-family:Sans;-inkscape-font-specification:Sans" id="text3903" x="412.859" y="564.738"><tspan style="font-size:16px;font-style:normal;font-variant:normal;font-weight:400;font-stretch:normal;text-align:start;line-height:125%;writing-mode:lr-tb;text-anchor:start;font-family:Sans;-inkscape-font-specification:Sans" id="tspan3905" x="412.859" y="564.738">QEMU</tspan></text><rect style="fill:none;stroke:#000;stroke-width:.53149605;stroke-miterlimit:4;stroke-opacity:1;stroke-dasharray:none" id="rect3878-5" width="60" height="20" x="467.859" y="584.738"/><text id="text4748" x="472.859" y="599.738" style="font-size:16px;font-style:normal;font-variant:normal;font-weight:400;font-stretch:normal;text-align:start;line-height:125%;letter-spacing:0;word-spacing:0;writing-mode:lr-tb;text-anchor:start;fill:#000;fill-opacity:1;stroke:none;font-family:Sans;-inkscape-font-specification:Sans" xml:space="preserve"><tspan id="tspan4750" x="472.859" y="599.738">PRoot</tspan></text><rect style="fill:none;stroke:#000;stroke-width:.53149605;stroke-miterlimit:4;stroke-opacity:1;stroke-dasharray:none" id="rect3878-5-4" width="100" height="20" x="447.859" y="619.738"/><text xml:space="preserve" style="font-size:16px;font-style:normal;font-variant:normal;font-weight:400;font-stretch:normal;text-align:start;line-height:125%;letter-spacing:0;word-spacing:0;writing-mode:lr-tb;text-anchor:start;fill:#000;fill-opacity:1;stroke:none;font-family:Sans;-inkscape-font-specification:Sans" id="text5420" x="452.859" y="634.738"><tspan id="tspan5422" x="452.859" y="634.738">host kernel</tspan></text><text xml:space="preserve" style="font-size:16px;font-style:normal;font-variant:normal;font-weight:400;font-stretch:normal;text-align:start;line-height:125%;letter-spacing:0;word-spacing:0;writing-mode:lr-tb;text-anchor:start;fill:#000;fill-opacity:1;stroke:none;font-family:Sans;-inkscape-font-specification:Sans" id="text6457" x="489.859" y="549.738"><tspan id="tspan6459" x="489.859" y="549.738">...</tspan></text><rect style="fill:#ccc;fill-opacity:1;stroke:none" id="rect4419-0" width="90" height="20" x="512.859" y="549.738"/><rect style="fill:none;stroke:#000;stroke-width:.53149605;stroke-miterlimit:4;stroke-opacity:1;stroke-dasharray:none" id="rect3878-9" width="90" height="40" x="512.859" y="529.738" ry="0"/><text xml:space="preserve" style="font-size:16px;font-style:normal;font-variant:normal;font-weight:400;font-stretch:normal;text-align:start;line-height:125%;letter-spacing:0;word-spacing:0;writing-mode:lr-tb;text-anchor:start;fill:#000;fill-opacity:1;stroke:none;font-family:Sans;-inkscape-font-specification:Sans" id="text3880-3" x="517.859" y="544.738"><tspan id="tspan3882-6" x="517.859" y="544.738" style="font-size:16px;font-style:normal;font-variant:normal;font-weight:400;font-stretch:normal;text-align:start;line-height:125%;writing-mode:lr-tb;text-anchor:start;font-family:Sans;-inkscape-font-specification:Sans">process <tspan style="font-style:italic;-inkscape-font-specification:Sans Italic" id="tspan3359">N</tspan></tspan></text><text xml:space="preserve" style="font-size:16px;font-style:normal;font-variant:normal;font-weight:400;font-stretch:normal;text-align:start;line-height:125%;letter-spacing:0;word-spacing:0;writing-mode:lr-tb;text-anchor:start;fill:#000;fill-opacity:1;stroke:none;font-family:Sans;-inkscape-font-specification:Sans" id="text3903-0" x="532.859" y="564.738"><tspan style="font-size:16px;font-style:normal;font-variant:normal;font-weight:400;font-stretch:normal;text-align:start;line-height:125%;writing-mode:lr-tb;text-anchor:start;font-family:Sans;-inkscape-font-specification:Sans" id="tspan3905-6" x="532.859" y="564.738">QEMU</tspan></text><path style="fill:none;stroke:#000;stroke-width:.53149605;stroke-linecap:butt;stroke-linejoin:miter;stroke-miterlimit:4;stroke-opacity:1;stroke-dasharray:none;marker-start:url(#Arrow2Lstart-9);marker-end:url(#Arrow2Lend-2);display:inline" id="path8719-4-3" d="m 497.85881,604.73834 0,15"/><path style="fill:none;stroke:#000;stroke-width:.53149605;stroke-linecap:butt;stroke-linejoin:miter;stroke-miterlimit:4;stroke-opacity:1;stroke-dasharray:none;marker-start:url(#Arrow2Lstart-9);marker-end:url(#Arrow2Lend-2);display:inline" id="path8719-4-3-7" d="m 457.85881,569.73834 40,15"/><path style="fill:none;stroke:#000;stroke-width:.53149605;stroke-linecap:butt;stroke-linejoin:miter;stroke-miterlimit:4;stroke-opacity:1;stroke-dasharray:none;marker-start:url(#Arrow2Lstart-9);marker-end:url(#Arrow2Lend-2);display:inline" id="path8719-4-3-7-7" d="m 497.85881,584.73834 39.61431,-15.05459"/><rect style="fill:#ccc;fill-opacity:1;stroke:none" id="rect4419-09" width="90" height="20" x="242.859" y="549.738"/><rect style="fill:none;stroke:#000;stroke-width:.53149605;stroke-miterlimit:4;stroke-opacity:1;stroke-dasharray:none" id="rect3878-1" width="90" height="40" x="242.859" y="529.738" ry="0"/><text xml:space="preserve" style="font-size:16px;font-style:normal;font-variant:normal;font-weight:400;font-stretch:normal;text-align:start;line-height:125%;letter-spacing:0;word-spacing:0;writing-mode:lr-tb;text-anchor:start;fill:#000;fill-opacity:1;stroke:none;font-family:Sans;-inkscape-font-specification:Sans" id="text3880-7" x="247.859" y="544.738"><tspan id="tspan3882-7" x="247.859" y="544.738" style="font-size:16px;font-style:normal;font-variant:normal;font-weight:400;font-stretch:normal;text-align:start;line-height:125%;writing-mode:lr-tb;text-anchor:start;font-family:Sans;-inkscape-font-specification:Sans">process 1</tspan></text><text xml:space="preserve" style="font-size:16px;font-style:normal;font-variant:normal;font-weight:400;font-stretch:normal;text-align:start;line-height:125%;letter-spacing:0;word-spacing:0;writing-mode:lr-tb;text-anchor:start;fill:#000;fill-opacity:1;stroke:none;font-family:Sans;-inkscape-font-specification:Sans" id="text3903-1" x="262.859" y="564.738"><tspan style="font-size:16px;font-style:normal;font-variant:normal;font-weight:400;font-stretch:normal;text-align:start;line-height:125%;writing-mode:lr-tb;text-anchor:start;font-family:Sans;-inkscape-font-specification:Sans" id="tspan3905-1" x="262.859" y="564.738">QEMU</tspan></text><rect style="fill:none;stroke:#000;stroke-width:.53149605;stroke-miterlimit:4;stroke-opacity:1;stroke-dasharray:none" id="rect3878-5-4-67" width="100" height="20" x="237.859" y="619.738"/><text xml:space="preserve" style="font-size:16px;font-style:normal;font-variant:normal;font-weight:400;font-stretch:normal;text-align:start;line-height:125%;letter-spacing:0;word-spacing:0;writing-mode:lr-tb;text-anchor:start;fill:#000;fill-opacity:1;stroke:none;font-family:Sans;-inkscape-font-specification:Sans" id="text5420-3" x="242.859" y="634.738"><tspan id="tspan5422-6" x="242.859" y="634.738">host kernel</tspan></text><path style="fill:none;stroke:#000;stroke-width:.53149605;stroke-linecap:butt;stroke-linejoin:miter;stroke-miterlimit:4;stroke-opacity:1;stroke-dasharray:none;marker-start:url(#Arrow2Lstart-9);marker-end:url(#Arrow2Lend-2);display:inline" id="path8719-4-3-3" d="m 287.59307,570.00409 0,50"/><rect style="fill:#ccc;fill-opacity:1;stroke:none" id="rect4419-9" width="220" height="75" x="-32.407" y="530.004"/><rect style="fill:none;stroke:#000;stroke-width:.53149605;stroke-miterlimit:4;stroke-opacity:1;stroke-dasharray:none" id="rect3878-5-4-8" width="100" height="20" x="27.859" y="619.738"/><text xml:space="preserve" style="font-size:16px;font-style:normal;font-variant:normal;font-weight:400;font-stretch:normal;text-align:start;line-height:125%;letter-spacing:0;word-spacing:0;writing-mode:lr-tb;text-anchor:start;fill:#000;fill-opacity:1;stroke:none;font-family:Sans;-inkscape-font-specification:Sans" id="text5420-5" x="32.859" y="634.738"><tspan id="tspan5422-61" x="32.859" y="634.738">host kernel</tspan></text><text xml:space="preserve" style="font-size:16px;font-style:normal;font-variant:normal;font-weight:400;font-stretch:normal;text-align:start;line-height:125%;letter-spacing:0;word-spacing:0;writing-mode:lr-tb;text-anchor:start;fill:#000;fill-opacity:1;stroke:none;font-family:Sans;-inkscape-font-specification:Sans" id="text6457-1" x="69.859" y="549.738"><tspan id="tspan6459-5" x="69.859" y="549.738">...</tspan></text><rect style="fill:#ccc;fill-opacity:1;stroke:none" id="rect4419-0-9" width="90" height="20" x="92.859" y="549.738"/><text xml:space="preserve" style="font-size:16px;font-style:normal;font-variant:normal;font-weight:400;font-stretch:normal;text-align:start;line-height:125%;letter-spacing:0;word-spacing:0;writing-mode:lr-tb;text-anchor:start;fill:#000;fill-opacity:1;stroke:none;font-family:Sans;-inkscape-font-specification:Sans" id="text3903-0-0" x="127.593" y="600.004"><tspan style="font-size:16px;font-style:normal;font-variant:normal;font-weight:400;font-stretch:normal;text-align:start;line-height:125%;writing-mode:lr-tb;text-anchor:start;font-family:Sans;-inkscape-font-specification:Sans" id="tspan3905-6-3" x="127.593" y="600.004">QEMU</tspan></text><path style="fill:none;stroke:#000;stroke-width:.53149605;stroke-linecap:butt;stroke-linejoin:miter;stroke-miterlimit:4;stroke-opacity:1;stroke-dasharray:none;marker-start:url(#Arrow2Lstart-9);marker-end:url(#Arrow2Lend-2);display:inline" id="path8719-4-3-0" d="m 77.858825,604.73834 0,15"/><path style="fill:none;stroke:#000;stroke-width:.53149605;stroke-linecap:butt;stroke-linejoin:miter;stroke-miterlimit:4;stroke-opacity:1;stroke-dasharray:none;marker-start:url(#Arrow2Lstart-9);marker-end:url(#Arrow2Lend-2);display:inline" id="path8719-4-3-7-4" d="m 37.593066,555.00409 25,25"/><path style="fill:none;stroke:#000;stroke-width:.53149605;stroke-linecap:butt;stroke-linejoin:miter;stroke-miterlimit:4;stroke-opacity:1;stroke-dasharray:none;marker-start:url(#Arrow2Lstart-9);marker-end:url(#Arrow2Lend-2);display:inline" id="path8719-4-3-7-7-4" d="m 67.593066,580.00409 50.000004,-25"/><rect style="fill:#fff;fill-opacity:1;stroke:#000;stroke-width:.53100002;stroke-miterlimit:4;stroke-opacity:1;stroke-dasharray:1.59300005,1.59300005;stroke-dashoffset:0" id="rect5446" width="90" height="20" x="-27.407" y="535.004"/><text xml:space="preserve" style="font-size:16px;font-style:normal;font-variant:normal;font-weight:400;font-stretch:normal;text-align:start;line-height:125%;letter-spacing:0;word-spacing:0;writing-mode:lr-tb;text-anchor:start;fill:#000;fill-opacity:1;stroke:none;font-family:Sans;-inkscape-font-specification:Sans" id="text3880-8" x="-22.407" y="550.004"><tspan id="tspan3882-8" x="-22.407" y="550.004" style="font-size:16px;font-style:normal;font-variant:normal;font-weight:400;font-stretch:normal;text-align:start;line-height:125%;writing-mode:lr-tb;text-anchor:start;font-family:Sans;-inkscape-font-specification:Sans">process 1</tspan></text><rect style="fill:#fff;fill-opacity:1;stroke:#000;stroke-width:.53100002;stroke-miterlimit:4;stroke-opacity:1;stroke-dasharray:1.59300005,1.59300005;stroke-dashoffset:0" id="rect5446-7" width="115" height="20" x="-22.407" y="580.004"/><text xml:space="preserve" style="font-size:16px;font-style:normal;font-variant:normal;font-weight:400;font-stretch:normal;text-align:start;line-height:125%;letter-spacing:0;word-spacing:0;writing-mode:lr-tb;text-anchor:start;fill:#000;fill-opacity:1;stroke:none;font-family:Sans;-inkscape-font-specification:Sans" id="text3880-8-4" x="-17.407" y="595.004"><tspan id="tspan3882-8-4" x="-17.407" y="595.004" style="font-size:16px;font-style:normal;font-variant:normal;font-weight:400;font-stretch:normal;text-align:start;line-height:125%;writing-mode:lr-tb;text-anchor:start;font-family:Sans;-inkscape-font-specification:Sans">guest kernel</tspan></text><rect style="fill:#fff;fill-opacity:1;stroke:#000;stroke-width:.53100002;stroke-miterlimit:4;stroke-opacity:1;stroke-dasharray:1.59300005,1.59300005;stroke-dashoffset:0" id="rect5446-6" width="90" height="20" x="92.593" y="535.004"/><text xml:space="preserve" style="font-size:16px;font-style:normal;font-variant:normal;font-weight:400;font-stretch:normal;text-align:start;line-height:125%;letter-spacing:0;word-spacing:0;writing-mode:lr-tb;text-anchor:start;fill:#000;fill-opacity:1;stroke:none;font-family:Sans;-inkscape-font-specification:Sans" id="text3880-3-4" x="97.593" y="550.004"><tspan id="tspan3882-6-8" x="97.593" y="550.004" style="font-size:16px;font-style:normal;font-variant:normal;font-weight:400;font-stretch:normal;text-align:start;line-height:125%;writing-mode:lr-tb;text-anchor:start;font-family:Sans;-inkscape-font-specification:Sans">process <tspan style="font-style:italic;-inkscape-font-specification:Sans Italic" id="tspan3359-1">N</tspan></tspan></text><text xml:space="preserve" style="font-size:16px;font-style:normal;font-variant:normal;font-weight:400;font-stretch:normal;text-align:start;line-height:125%;letter-spacing:0;word-spacing:0;writing-mode:lr-tb;text-anchor:start;fill:#000;fill-opacity:1;stroke:none;font-family:Sans;-inkscape-font-specification:Sans" id="text5480" x="12.593" y="665.004"><tspan id="tspan5482" x="12.593" y="665.004" style="font-style:italic;-inkscape-font-specification:Sans Italic">(a) system-mode</tspan></text><text xml:space="preserve" style="font-size:16px;font-style:normal;font-variant:normal;font-weight:400;font-stretch:normal;text-align:start;line-height:125%;letter-spacing:0;word-spacing:0;writing-mode:lr-tb;text-anchor:start;fill:#000;fill-opacity:1;stroke:none;font-family:Sans;-inkscape-font-specification:Sans" id="text5484" x="232.593" y="665.004"><tspan id="tspan5486" x="232.593" y="665.004" style="font-style:italic;-inkscape-font-specification:Sans Italic">(b) user-mode</tspan></text><text xml:space="preserve" style="font-size:16px;font-style:normal;font-variant:normal;font-weight:400;font-stretch:normal;text-align:start;line-height:125%;letter-spacing:0;word-spacing:0;writing-mode:lr-tb;text-anchor:start;fill:#000;fill-opacity:1;stroke:none;font-family:Sans;-inkscape-font-specification:Sans" id="text5488" x="407.593" y="665.004"><tspan id="tspan5490" x="407.593" y="665.004">(<tspan style="font-style:italic;-inkscape-font-specification:Sans Italic" id="tspan5492">c) user-mode + PRoot</tspan></tspan></text></g></svg>